<?xml version="1.0" standalone="no"?><!DOCTYPE svg PUBLIC "-//W3C//DTD SVG 1.1//EN" "http://www.w3.org/Graphics/SVG/1.1/DTD/svg11.dtd"><svg t="1648474507893" class="icon" viewBox="0 0 1024 1024" version="1.1" xmlns="http://www.w3.org/2000/svg" p-id="3223" xmlns:xlink="http://www.w3.org/1999/xlink" width="200" height="200"><defs><style type="text/css">@font-face { font-family: feedback-iconfont; src: url("//at.alicdn.com/t/font_1031158_u69w8yhxdu.woff2?t=1630033759944") format("woff2"), url("//at.alicdn.com/t/font_1031158_u69w8yhxdu.woff?t=1630033759944") format("woff"), url("//at.alicdn.com/t/font_1031158_u69w8yhxdu.ttf?t=1630033759944") format("truetype"); }
</style></defs><path d="M830.4 78.2H209.9c-34.8 0-63.1 28.3-63.1 63.1V881c0 34.8 28.3 63.1 63.1 63.1h620.5c34.8 0 63.1-28.3 63.1-63.1V141.3c0-34.8-28.3-63.1-63.1-63.1zM275.9 900.1h-66c-10.5 0-19.1-8.6-19.1-19.1V141.4c0-10.5 8.6-19.1 19.1-19.1h66v777.8zM849.5 881c0 10.5-8.6 19.1-19.1 19.1H319.9V122.3l510.5-0.1c10.5 0 19.1 8.6 19.1 19.1V881z" p-id="3224"></path><path d="M705 283.7H448.7c-12.2 0-22 9.8-22 22s9.8 22 22 22H705c12.2 0 22-9.8 22-22s-9.8-22-22-22zM705 489.2H448.7c-12.2 0-22 9.8-22 22s9.8 22 22 22H705c12.2 0 22-9.8 22-22s-9.8-22-22-22zM705 694.7H448.7c-12.2 0-22 9.8-22 22s9.8 22 22 22H705c12.2 0 22-9.8 22-22s-9.8-22-22-22z" p-id="3225"></path></svg>